<?xml version="1.0" encoding="UTF-8" standalone="no"?><svg xmlns="http://www.w3.org/2000/svg" xmlns:xlink="http://www.w3.org/1999/xlink" width="1080" zoomAndPan="magnify" viewBox="0 0 810 809.999993" height="1080" preserveAspectRatio="xMidYMid meet" version="1.0"><defs><g/><clipPath id="id1"><path d="M 368.792969 255.472656 L 455.792969 255.472656 L 455.792969 554.722656 L 368.792969 554.722656 Z M 368.792969 255.472656 " clip-rule="nonzero"/></clipPath></defs><g clip-path="url(#id1)"><path fill="#162d5a" d="M 412.691406 255.753906 C 388.757812 255.511719 369.136719 274.75 368.894531 298.695312 C 368.886719 299.640625 368.992188 300.550781 369.042969 301.484375 C 390.6875 307.984375 440.359375 308.484375 455.390625 302.730469 C 455.476562 301.679688 455.597656 300.648438 455.609375 299.574219 C 455.851562 275.628906 436.625 256 412.691406 255.753906 Z M 454.730469 307.722656 C 434.371094 316.117188 394.246094 312.339844 369.921875 308.238281 C 371.996094 317.933594 377.292969 326.433594 384.667969 332.535156 C 384.695312 332.539062 384.710938 332.601562 384.738281 332.609375 C 392.96875 333.976562 403.082031 334.800781 411.957031 334.882812 C 420.898438 334.964844 430.886719 334.453125 439.175781 333.046875 C 447.019531 326.820312 452.675781 317.941406 454.730469 307.726562 Z M 384.664062 337.304688 C 388.1875 390.941406 392.75 481.546875 396.402344 534.980469 C 396.371094 538.203125 403.402344 540.910156 412.03125 541 C 420.660156 541.085938 427.625 538.570312 427.65625 535.347656 C 432.152344 481.78125 434.703125 391.261719 439.101562 337.671875 C 439.078125 337.675781 439.050781 337.667969 439.027344 337.671875 L 438.953125 337.820312 C 435.886719 338.230469 432.679688 338.578125 429.417969 338.847656 C 429.371094 338.851562 429.320312 338.84375 429.269531 338.847656 C 423.613281 339.292969 417.761719 339.496094 411.664062 339.433594 C 405.65625 339.375 399.84375 339.027344 394.277344 338.480469 C 394.253906 338.46875 394.222656 338.488281 394.203125 338.480469 C 390.933594 338.148438 387.757812 337.78125 384.664062 337.304688 Z M 401.320312 542.027344 L 401.464844 549 C 401.519531 552.152344 404.113281 554.667969 407.261719 554.652344 L 417.605469 554.578125 C 420.757812 554.5625 423.234375 552.078125 423.183594 548.925781 L 423.035156 542.246094 C 416.277344 544.753906 408.21875 544.496094 401.320312 542.027344 Z M 401.320312 542.027344 " fill-opacity="1" fill-rule="nonzero"/></g><g fill="#162d5a" fill-opacity="1"><g transform="translate(65.398851, 438.648396)"><g><path d="M 14.859375 -6.796875 C 19.929688 -3.472656 25.5 -1.8125 31.5625 -1.8125 C 37.632812 -1.8125 42.347656 -3.15625 45.703125 -5.84375 C 49.054688 -8.53125 50.734375 -12.019531 50.734375 -16.3125 C 50.734375 -18.664062 50.007812 -20.71875 48.5625 -22.46875 C 47.113281 -24.21875 45.300781 -25.578125 43.125 -26.546875 C 40.707031 -27.628906 36.023438 -29.117188 29.078125 -31.015625 C 22.128906 -32.921875 17.34375 -34.523438 14.71875 -35.828125 C 12.09375 -37.128906 10.039062 -38.773438 8.5625 -40.765625 C 7.082031 -42.753906 6.34375 -45.050781 6.34375 -47.65625 C 6.34375 -52.726562 8.003906 -56.773438 11.328125 -59.796875 C 14.648438 -62.816406 19.929688 -64.328125 27.171875 -64.328125 C 34.359375 -64.328125 40.972656 -61.757812 47.015625 -56.625 C 47.984375 -55.832031 48.46875 -56.132812 48.46875 -57.53125 L 48.46875 -62.0625 C 48.46875 -62.96875 48.921875 -63.421875 49.828125 -63.421875 C 50.734375 -63.421875 51.1875 -62.96875 51.1875 -62.0625 L 51.1875 -44.84375 C 51.1875 -43.9375 50.734375 -43.484375 49.828125 -43.484375 C 48.921875 -43.484375 48.46875 -43.9375 48.46875 -44.84375 L 48.46875 -51.1875 C 45.144531 -54.988281 41.007812 -57.914062 36.0625 -59.96875 C 33.394531 -61.0625 30.429688 -61.609375 27.171875 -61.609375 C 21.015625 -61.609375 16.457031 -60.335938 13.5 -57.796875 C 10.539062 -55.265625 9.0625 -52.15625 9.0625 -48.46875 C 9.0625 -46.113281 9.785156 -44.0625 11.234375 -42.3125 C 12.679688 -40.5625 14.492188 -39.203125 16.671875 -38.234375 C 19.085938 -37.140625 23.765625 -35.640625 30.703125 -33.734375 C 37.648438 -31.835938 42.4375 -30.238281 45.0625 -28.9375 C 47.695312 -27.644531 49.753906 -26 51.234375 -24 C 52.710938 -22.007812 53.453125 -19.625 53.453125 -16.84375 C 53.453125 -11.414062 51.546875 -7.097656 47.734375 -3.890625 C 43.929688 -0.691406 38.285156 0.90625 30.796875 0.90625 C 23.304688 0.90625 16.546875 -1.660156 10.515625 -6.796875 C 9.546875 -7.578125 9.0625 -7.273438 9.0625 -5.890625 L 9.0625 -1.359375 C 9.0625 -0.453125 8.609375 0 7.703125 0 C 6.796875 0 6.34375 -0.453125 6.34375 -1.359375 L 6.34375 -18.578125 C 6.34375 -19.484375 6.796875 -19.9375 7.703125 -19.9375 C 8.609375 -19.9375 9.0625 -19.484375 9.0625 -18.578125 L 9.0625 -11.78125 C 10.6875 -9.90625 12.617188 -8.242188 14.859375 -6.796875 Z M 14.859375 -6.796875 "/></g></g></g><g fill="#162d5a" fill-opacity="1"><g transform="translate(123.83436, 438.648396)"><g><path d="M 4.703125 0 C 3.804688 0 3.359375 -0.453125 3.359375 -1.359375 C 3.359375 -2.265625 3.804688 -2.71875 4.703125 -2.71875 L 11.046875 -2.71875 C 11.953125 -2.71875 12.40625 -3.171875 12.40625 -4.078125 L 12.40625 -41.21875 C 12.40625 -42.125 11.953125 -42.578125 11.046875 -42.578125 L 4.703125 -42.578125 C 3.804688 -42.578125 3.359375 -43.03125 3.359375 -43.9375 C 3.359375 -44.84375 3.804688 -45.296875 4.703125 -45.296875 L 13.765625 -45.296875 C 14.671875 -45.296875 15.125 -44.84375 15.125 -43.9375 L 15.125 -4.078125 C 15.125 -3.171875 15.578125 -2.71875 16.484375 -2.71875 L 22.828125 -2.71875 C 23.734375 -2.71875 24.1875 -2.265625 24.1875 -1.359375 C 24.1875 -0.453125 23.734375 0 22.828125 0 Z M 10.734375 -53.578125 C 10.035156 -54.273438 9.6875 -55.132812 9.6875 -56.15625 C 9.6875 -57.1875 10.035156 -58.050781 10.734375 -58.75 C 11.429688 -59.445312 12.289062 -59.796875 13.3125 -59.796875 C 14.34375 -59.796875 15.203125 -59.445312 15.890625 -58.75 C 16.585938 -58.050781 16.9375 -57.1875 16.9375 -56.15625 C 16.9375 -55.132812 16.585938 -54.273438 15.890625 -53.578125 C 15.203125 -52.890625 14.34375 -52.546875 13.3125 -52.546875 C 12.289062 -52.546875 11.429688 -52.890625 10.734375 -53.578125 Z M 10.734375 -53.578125 "/></g></g></g><g fill="#162d5a" fill-opacity="1"><g transform="translate(149.745294, 438.648396)"><g><path d="M 4.625 -2.71875 L 10.96875 -2.71875 C 11.875 -2.71875 12.328125 -3.171875 12.328125 -4.078125 L 12.328125 -41.21875 C 12.328125 -42.125 11.875 -42.578125 10.96875 -42.578125 L 4.625 -42.578125 C 3.71875 -42.578125 3.265625 -43.03125 3.265625 -43.9375 C 3.265625 -44.84375 3.71875 -45.296875 4.625 -45.296875 L 13.671875 -45.296875 C 14.578125 -45.296875 15.03125 -44.84375 15.03125 -43.9375 L 15.03125 -38.859375 C 15.03125 -37.296875 15.515625 -36.992188 16.484375 -37.953125 C 21.191406 -43.453125 25.84375 -46.203125 30.4375 -46.203125 C 33.9375 -46.203125 36.984375 -45.203125 39.578125 -43.203125 C 42.179688 -41.210938 44 -38.347656 45.03125 -34.609375 C 46.238281 -36.722656 47.6875 -38.65625 49.375 -40.40625 C 53.113281 -44.269531 57.15625 -46.203125 61.5 -46.203125 C 65.851562 -46.203125 69.460938 -44.613281 72.328125 -41.4375 C 75.203125 -38.269531 76.640625 -33.816406 76.640625 -28.078125 L 76.640625 -4.078125 C 76.640625 -3.171875 77.09375 -2.71875 78 -2.71875 L 84.34375 -2.71875 C 85.25 -2.71875 85.703125 -2.265625 85.703125 -1.359375 C 85.703125 -0.453125 85.25 0 84.34375 0 L 67.125 0 C 66.21875 0 65.765625 -0.453125 65.765625 -1.359375 C 65.765625 -2.265625 66.21875 -2.71875 67.125 -2.71875 L 72.5625 -2.71875 C 73.46875 -2.71875 73.921875 -3.171875 73.921875 -4.078125 L 73.921875 -28.078125 C 73.921875 -33.035156 72.710938 -36.84375 70.296875 -39.5 C 67.878906 -42.15625 64.828125 -43.484375 61.140625 -43.484375 C 57.460938 -43.484375 53.75 -41.367188 50 -37.140625 C 48.3125 -35.210938 46.863281 -33.097656 45.65625 -30.796875 C 45.78125 -29.472656 45.84375 -28.566406 45.84375 -28.078125 L 45.84375 -4.078125 C 45.84375 -3.171875 46.296875 -2.71875 47.203125 -2.71875 L 52.640625 -2.71875 C 53.546875 -2.71875 54 -2.265625 54 -1.359375 C 54 -0.453125 53.546875 0 52.640625 0 L 36.328125 0 C 35.421875 0 34.96875 -0.453125 34.96875 -1.359375 C 34.96875 -2.265625 35.421875 -2.71875 36.328125 -2.71875 L 41.765625 -2.71875 C 42.671875 -2.71875 43.125 -3.171875 43.125 -4.078125 L 43.125 -28.078125 C 43.125 -33.035156 41.914062 -36.84375 39.5 -39.5 C 37.082031 -42.15625 34.046875 -43.484375 30.390625 -43.484375 C 26.734375 -43.484375 23.097656 -41.429688 19.484375 -37.328125 C 17.910156 -35.578125 16.425781 -33.550781 15.03125 -31.25 L 15.03125 -4.078125 C 15.03125 -3.171875 15.484375 -2.71875 16.390625 -2.71875 L 21.828125 -2.71875 C 22.734375 -2.71875 23.1875 -2.265625 23.1875 -1.359375 C 23.1875 -0.453125 22.734375 0 21.828125 0 L 4.625 0 C 3.71875 0 3.265625 -0.453125 3.265625 -1.359375 C 3.265625 -2.265625 3.71875 -2.71875 4.625 -2.71875 Z M 4.625 -2.71875 "/></g></g></g><g fill="#162d5a" fill-opacity="1"><g transform="translate(236.628468, 438.648396)"><g><path d="M 27.09375 -2.71875 C 34.03125 -2.71875 39.382812 -4.40625 43.15625 -7.78125 C 46.9375 -11.164062 48.828125 -16.148438 48.828125 -22.734375 C 48.828125 -29.316406 47.238281 -34.421875 44.0625 -38.046875 C 40.894531 -41.671875 36.804688 -43.484375 31.796875 -43.484375 C 26.785156 -43.484375 22.226562 -41.429688 18.125 -37.328125 C 16.425781 -35.628906 14.882812 -33.601562 13.5 -31.25 L 13.5 -4.078125 C 13.5 -3.171875 13.953125 -2.71875 14.859375 -2.71875 Z M 14.859375 0 C 13.953125 0 13.5 0.453125 13.5 1.359375 L 13.5 14.046875 C 13.5 14.953125 13.953125 15.40625 14.859375 15.40625 L 22.109375 15.40625 C 23.015625 15.40625 23.46875 15.859375 23.46875 16.765625 C 23.46875 17.671875 23.015625 18.125 22.109375 18.125 L 3.078125 18.125 C 2.171875 18.125 1.71875 17.671875 1.71875 16.765625 C 1.71875 15.859375 2.171875 15.40625 3.078125 15.40625 L 9.421875 15.40625 C 10.328125 15.40625 10.78125 14.953125 10.78125 14.046875 L 10.78125 -41.21875 C 10.78125 -42.125 10.328125 -42.578125 9.421875 -42.578125 L 3.078125 -42.578125 C 2.171875 -42.578125 1.71875 -43.03125 1.71875 -43.9375 C 1.71875 -44.84375 2.171875 -45.296875 3.078125 -45.296875 L 12.140625 -45.296875 C 13.046875 -45.296875 13.5 -44.84375 13.5 -43.9375 L 13.5 -38.859375 C 13.5 -38.253906 13.617188 -37.832031 13.859375 -37.59375 C 14.097656 -37.351562 14.460938 -37.472656 14.953125 -37.953125 C 16.460938 -39.890625 18.664062 -41.75 21.5625 -43.53125 C 24.457031 -45.3125 27.8125 -46.203125 31.625 -46.203125 C 37.65625 -46.203125 42.484375 -44.070312 46.109375 -39.8125 C 49.734375 -35.550781 51.546875 -29.828125 51.546875 -22.640625 C 51.546875 -15.460938 49.375 -9.878906 45.03125 -5.890625 C 40.675781 -1.960938 34.695312 0 27.09375 0 Z M 14.859375 0 "/></g></g></g><g fill="#162d5a" fill-opacity="1"><g transform="translate(292.980215, 438.648396)"><g><path d="M 3.078125 0 C 2.171875 0 1.71875 -0.453125 1.71875 -1.359375 C 1.71875 -2.265625 2.171875 -2.71875 3.078125 -2.71875 L 9.421875 -2.71875 C 10.328125 -2.71875 10.78125 -3.171875 10.78125 -4.078125 L 10.78125 -59.34375 C 10.78125 -60.25 10.328125 -60.703125 9.421875 -60.703125 L 3.078125 -60.703125 C 2.171875 -60.703125 1.71875 -61.15625 1.71875 -62.0625 C 1.71875 -62.96875 2.171875 -63.421875 3.078125 -63.421875 L 12.140625 -63.421875 C 13.046875 -63.421875 13.5 -62.96875 13.5 -62.0625 L 13.5 -4.078125 C 13.5 -3.171875 13.953125 -2.71875 14.859375 -2.71875 L 21.203125 -2.71875 C 22.109375 -2.71875 22.5625 -2.265625 22.5625 -1.359375 C 22.5625 -0.453125 22.109375 0 21.203125 0 Z M 3.078125 0 "/></g></g></g><g fill="#162d5a" fill-opacity="1"><g transform="translate(317.26041, 438.648396)"><g><path d="M 40.21875 -6.34375 C 41.1875 -7.0625 41.925781 -7.660156 42.4375 -8.140625 C 42.957031 -8.628906 43.367188 -8.796875 43.671875 -8.640625 C 43.972656 -8.492188 44.347656 -8.164062 44.796875 -7.65625 C 45.253906 -7.144531 45.117188 -6.585938 44.390625 -5.984375 C 42.210938 -4.109375 39.703125 -2.488281 36.859375 -1.125 C 34.023438 0.226562 30.40625 0.90625 26 0.90625 C 19.59375 0.90625 14.441406 -1.296875 10.546875 -5.703125 C 6.648438 -10.117188 4.703125 -15.769531 4.703125 -22.65625 C 4.703125 -29.53125 6.648438 -35.171875 10.546875 -39.578125 C 14.441406 -43.992188 19.546875 -46.203125 25.859375 -46.203125 C 32.171875 -46.203125 37.320312 -44.207031 41.3125 -40.21875 C 45.300781 -36.238281 47.296875 -31.4375 47.296875 -25.8125 L 47.296875 -24.453125 C 47.296875 -22.648438 46.390625 -21.75 44.578125 -21.75 L 8.875 -21.75 C 7.851562 -21.75 7.398438 -21.296875 7.515625 -20.390625 C 7.878906 -15.128906 9.675781 -10.71875 12.90625 -7.15625 C 16.132812 -3.59375 20.570312 -1.8125 26.21875 -1.8125 C 31.875 -1.8125 36.539062 -3.320312 40.21875 -6.34375 Z M 7.609375 -25.546875 C 7.609375 -24.816406 8.03125 -24.453125 8.875 -24.453125 L 43.21875 -24.453125 C 44.125 -24.453125 44.578125 -24.90625 44.578125 -25.8125 C 44.578125 -30.644531 42.804688 -34.796875 39.265625 -38.265625 C 35.734375 -41.742188 31.265625 -43.484375 25.859375 -43.484375 C 20.453125 -43.484375 16.054688 -41.578125 12.671875 -37.765625 C 9.296875 -33.960938 7.609375 -29.890625 7.609375 -25.546875 Z M 7.609375 -25.546875 "/></g></g></g><g fill="#162d5a" fill-opacity="1"><g transform="translate(455.949437, 438.648396)"><g><path d="M 14.859375 -6.796875 C 19.929688 -3.472656 25.5 -1.8125 31.5625 -1.8125 C 37.632812 -1.8125 42.347656 -3.15625 45.703125 -5.84375 C 49.054688 -8.53125 50.734375 -12.019531 50.734375 -16.3125 C 50.734375 -18.664062 50.007812 -20.71875 48.5625 -22.46875 C 47.113281 -24.21875 45.300781 -25.578125 43.125 -26.546875 C 40.707031 -27.628906 36.023438 -29.117188 29.078125 -31.015625 C 22.128906 -32.921875 17.34375 -34.523438 14.71875 -35.828125 C 12.09375 -37.128906 10.039062 -38.773438 8.5625 -40.765625 C 7.082031 -42.753906 6.34375 -45.050781 6.34375 -47.65625 C 6.34375 -52.726562 8.003906 -56.773438 11.328125 -59.796875 C 14.648438 -62.816406 19.929688 -64.328125 27.171875 -64.328125 C 34.359375 -64.328125 40.972656 -61.757812 47.015625 -56.625 C 47.984375 -55.832031 48.46875 -56.132812 48.46875 -57.53125 L 48.46875 -62.0625 C 48.46875 -62.96875 48.921875 -63.421875 49.828125 -63.421875 C 50.734375 -63.421875 51.1875 -62.96875 51.1875 -62.0625 L 51.1875 -44.84375 C 51.1875 -43.9375 50.734375 -43.484375 49.828125 -43.484375 C 48.921875 -43.484375 48.46875 -43.9375 48.46875 -44.84375 L 48.46875 -51.1875 C 45.144531 -54.988281 41.007812 -57.914062 36.0625 -59.96875 C 33.394531 -61.0625 30.429688 -61.609375 27.171875 -61.609375 C 21.015625 -61.609375 16.457031 -60.335938 13.5 -57.796875 C 10.539062 -55.265625 9.0625 -52.15625 9.0625 -48.46875 C 9.0625 -46.113281 9.785156 -44.0625 11.234375 -42.3125 C 12.679688 -40.5625 14.492188 -39.203125 16.671875 -38.234375 C 19.085938 -37.140625 23.765625 -35.640625 30.703125 -33.734375 C 37.648438 -31.835938 42.4375 -30.238281 45.0625 -28.9375 C 47.695312 -27.644531 49.753906 -26 51.234375 -24 C 52.710938 -22.007812 53.453125 -19.625 53.453125 -16.84375 C 53.453125 -11.414062 51.546875 -7.097656 47.734375 -3.890625 C 43.929688 -0.691406 38.285156 0.90625 30.796875 0.90625 C 23.304688 0.90625 16.546875 -1.660156 10.515625 -6.796875 C 9.546875 -7.578125 9.0625 -7.273438 9.0625 -5.890625 L 9.0625 -1.359375 C 9.0625 -0.453125 8.609375 0 7.703125 0 C 6.796875 0 6.34375 -0.453125 6.34375 -1.359375 L 6.34375 -18.578125 C 6.34375 -19.484375 6.796875 -19.9375 7.703125 -19.9375 C 8.609375 -19.9375 9.0625 -19.484375 9.0625 -18.578125 L 9.0625 -11.78125 C 10.6875 -9.90625 12.617188 -8.242188 14.859375 -6.796875 Z M 14.859375 -6.796875 "/></g></g></g><g fill="#162d5a" fill-opacity="1"><g transform="translate(514.384946, 438.648396)"><g><path d="M 10.78125 -5.609375 C 6.675781 -9.960938 4.625 -15.640625 4.625 -22.640625 C 4.625 -29.648438 6.675781 -35.328125 10.78125 -39.671875 C 14.882812 -44.023438 20.226562 -46.203125 26.8125 -46.203125 C 33.394531 -46.203125 38.738281 -44.023438 42.84375 -39.671875 C 46.957031 -35.328125 49.015625 -29.648438 49.015625 -22.640625 C 49.015625 -15.640625 46.957031 -9.960938 42.84375 -5.609375 C 38.738281 -1.265625 33.394531 0.90625 26.8125 0.90625 C 20.226562 0.90625 14.882812 -1.265625 10.78125 -5.609375 Z M 26.8125 -43.484375 C 20.957031 -43.484375 16.25 -41.578125 12.6875 -37.765625 C 9.125 -33.960938 7.34375 -28.90625 7.34375 -22.59375 C 7.34375 -16.289062 9.109375 -11.25 12.640625 -7.46875 C 16.171875 -3.695312 20.894531 -1.8125 26.8125 -1.8125 C 32.726562 -1.8125 37.453125 -3.695312 40.984375 -7.46875 C 44.523438 -11.25 46.296875 -16.289062 46.296875 -22.59375 C 46.296875 -28.90625 44.515625 -33.960938 40.953125 -37.765625 C 37.390625 -41.578125 32.675781 -43.484375 26.8125 -43.484375 Z M 26.8125 -43.484375 "/></g></g></g><g fill="#162d5a" fill-opacity="1"><g transform="translate(568.018779, 438.648396)"><g><path d="M 2.359375 -45.296875 L 11.421875 -45.296875 C 12.328125 -45.296875 12.78125 -44.84375 12.78125 -43.9375 L 12.78125 -17.21875 C 12.78125 -12.082031 14.109375 -8.226562 16.765625 -5.65625 C 19.421875 -3.09375 23.039062 -1.8125 27.625 -1.8125 C 32.21875 -1.8125 36.539062 -3.832031 40.59375 -7.875 C 42.394531 -9.75 43.992188 -11.804688 45.390625 -14.046875 L 45.390625 -41.21875 C 45.390625 -42.125 44.9375 -42.578125 44.03125 -42.578125 L 37.6875 -42.578125 C 36.78125 -42.578125 36.328125 -43.03125 36.328125 -43.9375 C 36.328125 -44.84375 36.78125 -45.296875 37.6875 -45.296875 L 46.75 -45.296875 C 47.65625 -45.296875 48.109375 -44.84375 48.109375 -43.9375 L 48.109375 -4.078125 C 48.109375 -3.171875 48.5625 -2.71875 49.46875 -2.71875 L 55.8125 -2.71875 C 56.71875 -2.71875 57.171875 -2.265625 57.171875 -1.359375 C 57.171875 -0.453125 56.71875 0 55.8125 0 L 46.75 0 C 45.84375 0 45.390625 -0.453125 45.390625 -1.359375 L 45.390625 -6.4375 C 45.390625 -7.039062 45.265625 -7.460938 45.015625 -7.703125 C 44.773438 -7.941406 44.414062 -7.820312 43.9375 -7.34375 C 39.039062 -1.84375 33.722656 0.90625 27.984375 0.90625 C 22.253906 0.90625 17.832031 -0.644531 14.71875 -3.75 C 11.613281 -6.863281 10.0625 -11.351562 10.0625 -17.21875 L 10.0625 -41.21875 C 10.0625 -42.125 9.609375 -42.578125 8.703125 -42.578125 L 2.359375 -42.578125 C 1.453125 -42.578125 1 -43.03125 1 -43.9375 C 1 -44.84375 1.453125 -45.296875 2.359375 -45.296875 Z M 2.359375 -45.296875 "/></g></g></g><g fill="#162d5a" fill-opacity="1"><g transform="translate(626.907268, 438.648396)"><g><path d="M 4.625 -2.71875 L 10.96875 -2.71875 C 11.875 -2.71875 12.328125 -3.171875 12.328125 -4.078125 L 12.328125 -41.21875 C 12.328125 -42.125 11.875 -42.578125 10.96875 -42.578125 L 4.625 -42.578125 C 3.71875 -42.578125 3.265625 -43.03125 3.265625 -43.9375 C 3.265625 -44.84375 3.71875 -45.296875 4.625 -45.296875 L 13.671875 -45.296875 C 14.578125 -45.296875 15.03125 -44.84375 15.03125 -43.9375 L 15.03125 -38.859375 C 15.03125 -38.253906 15.148438 -37.832031 15.390625 -37.59375 C 15.640625 -37.351562 16.003906 -37.472656 16.484375 -37.953125 C 21.378906 -43.453125 26.691406 -46.203125 32.421875 -46.203125 C 38.160156 -46.203125 42.585938 -44.644531 45.703125 -41.53125 C 48.816406 -38.425781 50.375 -33.941406 50.375 -28.078125 L 50.375 -4.078125 C 50.375 -3.171875 50.828125 -2.71875 51.734375 -2.71875 L 58.078125 -2.71875 C 58.972656 -2.71875 59.421875 -2.265625 59.421875 -1.359375 C 59.421875 -0.453125 58.972656 0 58.078125 0 L 40.859375 0 C 39.953125 0 39.5 -0.453125 39.5 -1.359375 C 39.5 -2.265625 39.953125 -2.71875 40.859375 -2.71875 L 46.296875 -2.71875 C 47.203125 -2.71875 47.65625 -3.171875 47.65625 -4.078125 L 47.65625 -28.078125 C 47.65625 -33.210938 46.328125 -37.0625 43.671875 -39.625 C 41.015625 -42.195312 37.390625 -43.484375 32.796875 -43.484375 C 28.203125 -43.484375 23.851562 -41.429688 19.75 -37.328125 C 17.9375 -35.515625 16.363281 -33.488281 15.03125 -31.25 L 15.03125 -4.078125 C 15.03125 -3.171875 15.484375 -2.71875 16.390625 -2.71875 L 21.828125 -2.71875 C 22.734375 -2.71875 23.1875 -2.265625 23.1875 -1.359375 C 23.1875 -0.453125 22.734375 0 21.828125 0 L 4.625 0 C 3.71875 0 3.265625 -0.453125 3.265625 -1.359375 C 3.265625 -2.265625 3.71875 -2.71875 4.625 -2.71875 Z M 4.625 -2.71875 "/></g></g></g><g fill="#162d5a" fill-opacity="1"><g transform="translate(687.426507, 438.648396)"><g><path d="M 42.578125 -59.34375 C 42.578125 -60.25 42.125 -60.703125 41.21875 -60.703125 L 33.96875 -60.703125 C 33.0625 -60.703125 32.609375 -61.15625 32.609375 -62.0625 C 32.609375 -62.96875 33.0625 -63.421875 33.96875 -63.421875 L 43.9375 -63.421875 C 44.84375 -63.421875 45.296875 -62.96875 45.296875 -62.0625 L 45.296875 -4.078125 C 45.296875 -3.171875 45.75 -2.71875 46.65625 -2.71875 L 53 -2.71875 C 53.90625 -2.71875 54.359375 -2.265625 54.359375 -1.359375 C 54.359375 -0.453125 53.90625 0 53 0 L 43.9375 0 C 43.03125 0 42.578125 -0.453125 42.578125 -1.359375 L 42.578125 -6.4375 C 42.578125 -7.039062 42.457031 -7.460938 42.21875 -7.703125 C 41.976562 -7.941406 41.613281 -7.820312 41.125 -7.34375 C 39.613281 -5.34375 37.394531 -3.46875 34.46875 -1.71875 C 31.539062 0.03125 28.382812 0.90625 25 0.90625 C 18.601562 0.90625 13.59375 -1.191406 9.96875 -5.390625 C 6.34375 -9.585938 4.53125 -15.304688 4.53125 -22.546875 C 4.53125 -29.796875 6.6875 -35.398438 11 -39.359375 C 15.320312 -43.316406 21.316406 -45.296875 28.984375 -45.296875 L 41.21875 -45.296875 C 42.125 -45.296875 42.578125 -45.75 42.578125 -46.65625 Z M 42.578125 -41.21875 C 42.578125 -42.125 42.125 -42.578125 41.21875 -42.578125 L 28.984375 -42.578125 C 22.097656 -42.578125 16.753906 -40.882812 12.953125 -37.5 C 9.148438 -34.125 7.25 -29.160156 7.25 -22.609375 C 7.25 -16.054688 8.832031 -10.953125 12 -7.296875 C 15.175781 -3.640625 19.285156 -1.8125 24.328125 -1.8125 C 29.367188 -1.8125 33.910156 -3.832031 37.953125 -7.875 C 39.648438 -9.570312 41.191406 -11.628906 42.578125 -14.046875 Z M 42.578125 -41.21875 "/></g></g></g></svg>